 <svg xmlns="http://www.w3.org/2000/svg" style="display:none;" viewBox="0 0 200 220" class="svg-holder"
        clip-path="url(#clip)" width="200" height="220">
        <defs>
            <clipPath id="clip" clipPathUnits="objectBoundingBox">
                <rect x="0" y="0" width="200" height="220" />
            </clipPath>
        </defs>
        <rect x="0" y="0" width="200" height="220" fill="#000000" />
        <path d="M93,306L-153,-38L327,16Z" fill="rgb(32, 34, 34)" fill-opacity="0.69" />
        <path d="M184,104L51,167L66,29Z" fill="rgb(33, 34, 36)" fill-opacity="0.76" />
        <path d="M100,-23L-4,85L-13,-14Z" fill="rgb(2, 6, 3)" fill-opacity="0.35" />
        <path d="M80,198L-9,108L4,240Z" fill="rgb(14, 16, 15)" fill-opacity="0.79" />
        <path d="M116,-6L204,-59L205,74Z" fill="rgb(10, 13, 11)" fill-opacity="0.63" />
        <path d="M216,206L217,103L107,206Z" fill="rgb(14, 16, 15)" fill-opacity="0.75" />
        <path d="M135,181L148,37L17,84Z" fill="rgb(41, 44, 48)" fill-opacity="0.23" />
        <path d="M115,128L111,65L74,102Z" fill="rgb(40, 42, 42)" fill-opacity="0.47" />
        <path d="M109,225L6,145L67,134Z" fill="rgb(20, 22, 22)" fill-opacity="0.56" />
        <path d="M254,11L150,98L171,175Z" fill="rgb(18, 21, 20)" fill-opacity="0.47" />
        <path d="M157,50L176,141L59,175Z" fill="rgb(29, 31, 33)" fill-opacity="0.40" />
        <path d="M29,117L58,34L78,165Z" fill="rgb(27, 29, 31)" fill-opacity="0.62" />
        <path d="M57,-1L-57,113L14,145Z" fill="rgb(18, 20, 19)" fill-opacity="0" />
        <path d="M173,31L36,22L110,-33Z" fill="rgb(18, 20, 19)" fill-opacity="0.72" />
        <path d="M126,7L138,72L14,67Z" fill="rgb(26, 28, 29)" fill-opacity="0.38" />
        <path d="M161,1L214,-5L208,45Z" fill="rgb(9, 10, 10)" fill-opacity="0.55" />
        <path d="M85,-10L83,54L10,50Z" fill="rgb(20, 22, 22)" fill-opacity="0.38" />
        <path d="M194,136L76,186L84,258Z" fill="rgb(19, 21, 20)" fill-opacity="0.73" />
        <path d="M-26,62L-16,-14L41,-1Z" fill="rgb(6, 6, 5)" fill-opacity="0.34" />
        <path d="M164,187L229,137L141,249Z" fill="rgb(10, 12, 11)" fill-opacity="0.57" />
        <path d="M185,94L91,29L93,78Z" fill="rgb(30, 32, 34)" fill-opacity="0.35" />
        <path d="M195,40L136,7L204,122Z" fill="rgb(17, 19, 19)" fill-opacity="0.65" />
        <path d="M42,198L9,246L-13,147Z" fill="rgb(8, 11, 10)" fill-opacity="0.48" />
        <path d="M136,176L18,87L90,172Z" fill="rgb(28, 28, 30)" fill-opacity="0.37" />
        <path d="M109,43L148,149L37,114Z" fill="rgb(48, 49, 45)" fill-opacity="0.10" />
        <path d="M118,166L46,157L19,91Z" fill="rgb(28, 28, 30)" fill-opacity="0.25" />
        <path d="M153,189L179,27L193,141Z" fill="rgb(20, 22, 21)" fill-opacity="0.50" />
        <path d="M117,31L38,52L149,65Z" fill="rgb(26, 27, 30)" fill-opacity="0.49" />
        <path d="M121,26L89,6L34,46Z" fill="rgb(21, 23, 22)" fill-opacity="0.63" />
        <path d="M194,80L132,37L139,199Z" fill="rgb(26, 27, 28)" fill-opacity="0.21" />
        <path d="M121,28L22,71L31,86Z" fill="rgb(26, 27, 29)" fill-opacity="0.43" />
        <path d="M145,83L107,135L71,85Z" fill="rgb(36, 37, 40)" fill-opacity="0.35" />
        <path d="M78,90L121,82L103,115Z" fill="rgb(43, 40, 40)" fill-opacity="0.29" />
        <path d="M7,53L106,14L185,98Z" fill="rgb(30, 32, 34)" fill-opacity="0.11" />
        <path d="M165,107L136,173L123,124Z" fill="rgb(27, 28, 30)" fill-opacity="0.37" />
        <path d="M11,141L15,36L61,201Z" fill="rgb(20, 23, 22)" fill-opacity="0.40" />
        <path d="M83,165L16,160L67,201Z" fill="rgb(18, 21, 20)" fill-opacity="0.45" />
        <path d="M89,11L184,75L158,11Z" fill="rgb(20, 23, 21)" fill-opacity="0.42" />
        <path d="M0,219L11,108L-1,10Z" fill="rgb(12, 15, 15)" fill-opacity="0.29" />
        <path d="M100,119L60,123L72,138Z" fill="rgb(30, 32, 34)" fill-opacity="0" />
        <path d="M14,88L46,172L54,46Z" fill="rgb(25, 25, 27)" fill-opacity="0.32" />
        <path d="M111,163L182,142L133,191Z" fill="rgb(22, 24, 22)" fill-opacity="0.37" />
        <path d="M85,160L117,19L154,136Z" fill="rgb(35, 35, 37)" fill-opacity="0.14" />
        <path d="M41,109L45,63L105,65Z" fill="rgb(31, 32, 34)" fill-opacity="0.30" />
        <path d="M-19,92L66,-5L44,58Z" fill="rgb(19, 21, 20)" fill-opacity="0.39" />
        <path d="M24,86L47,167L65,106Z" fill="rgb(27, 27, 29)" fill-opacity="0.30" />
        <path d="M86,9L5,72L43,16Z" fill="rgb(19, 21, 20)" fill-opacity="0.57" />
        <path d="M27,16L2,129L122,8Z" fill="rgb(26, 28, 29)" fill-opacity="0.10" />
        <path d="M175,29L176,162L94,13Z" fill="rgb(28, 31, 29)" fill-opacity="0.10" />
        <path d="M36,69L55,93L92,35Z" fill="rgb(28, 29, 30)" fill-opacity="0.50" />
        <path d="M152,48L64,56L155,113Z" fill="rgb(33, 32, 35)" fill-opacity="0.18" />
        <path d="M162,-13L142,11L249,80Z" fill="rgb(15, 16, 16)" fill-opacity="0.36" />
        <path d="M63,39L28,161L164,93Z" fill="rgb(33, 38, 39)" fill-opacity="0.10" />
        <path d="M142,1L191,32L192,58Z" fill="rgb(16, 18, 17)" fill-opacity="0.67" />
        <path d="M194,187L242,151L190,104Z" fill="rgb(12, 16, 14)" fill-opacity="0.33" />
        <path d="M168,175L213,148L79,292Z" fill="rgb(14, 16, 15)" fill-opacity="0.64" />
        <path d="M68,2L80,-61L-17,48Z" fill="rgb(15, 16, 15)" fill-opacity="0.38" />
        <path d="M105,120L115,74L73,87Z" fill="rgb(39, 38, 39)" fill-opacity="0.35" />
        <path d="M126,101L84,126L90,69Z" fill="rgb(37, 37, 39)" fill-opacity="0.51" />
        <path d="M-10,160L9,141L74,237Z" fill="rgb(14, 16, 17)" fill-opacity="0.40" />
        <path d="M35,144L128,181L57,175Z" fill="rgb(21, 24, 23)" fill-opacity="0.48" />
        <path d="M90,103L102,75L114,111Z" fill="rgb(40, 39, 40)" fill-opacity="0.45" />
        <path d="M192,157L186,109L206,83Z" fill="rgb(17, 20, 19)" fill-opacity="0.53" />
        <path d="M79,149L56,164L101,171Z" fill="rgb(25, 27, 26)" fill-opacity="0.43" />
        <path d="M150,174L189,117L177,54Z" fill="rgb(22, 24, 22)" fill-opacity="0.39" />
        <path d="M35,182L-2,136L40,152Z" fill="rgb(18, 20, 20)" fill-opacity="0.40" />
        <path d="M174,80L167,111L147,82Z" fill="rgb(26, 26, 29)" fill-opacity="0.48" />
        <path d="M98,116L116,89L79,88Z" fill="rgb(38, 38, 39)" fill-opacity="0.63" />
        <path d="M168,194L20,187L70,240Z" fill="rgb(15, 17, 16)" fill-opacity="0.32" />
        <path d="M181,121L120,162L159,68Z" fill="rgb(26, 27, 29)" fill-opacity="0.30" />
        <path d="M83,7L20,16L13,146Z" fill="rgb(26, 28, 21)" fill-opacity="0.10" />
        <path d="M62,31L2,108L33,32Z" fill="rgb(21, 23, 21)" fill-opacity="0.46" />
        <path d="M32,101L63,92L38,72Z" fill="rgb(27, 28, 30)" fill-opacity="0.56" />
        <path d="M38,42L95,31L21,95Z" fill="rgb(24, 26, 27)" fill-opacity="0.35" />
        <path d="M147,111L149,56L174,95Z" fill="rgb(26, 27, 29)" fill-opacity="0.59" />
        <path d="M138,157L115,47L163,96Z" fill="rgb(30, 31, 33)" fill-opacity="0.31" />
        <path d="M11,0L-23,-5L2,17Z" fill="rgb(7, 9, 8)" fill-opacity="0.45" />
        <path d="M126,165L172,129L157,160Z" fill="rgb(23, 25, 24)" fill-opacity="0.42" />
        <path d="M92,168L37,73L64,49Z" fill="rgb(31, 30, 33)" fill-opacity="0.23" />
        <path d="M57,181L1,135L21,40Z" fill="rgb(24, 24, 22)" fill-opacity="0.16" />
        <path d="M144,214L157,170L199,161Z" fill="rgb(16, 18, 17)" fill-opacity="0.48" />
        <path d="M147,177L148,155L176,175Z" fill="rgb(20, 22, 21)" fill-opacity="0.48" />
        <path d="M2,67L34,10L136,-39Z" fill="rgb(18, 19, 18)" fill-opacity="0.44" />
        <path d="M8,57L32,145L144,34Z" fill="rgb(30, 31, 33)" fill-opacity="0.10" />
        <path d="M199,70L167,19L147,28Z" fill="rgb(18, 20, 19)" fill-opacity="0.52" />
        <path d="M55,10L14,54L112,13Z" fill="rgb(20, 22, 20)" fill-opacity="0.45" />
        <path d="M56,125L32,128L32,79Z" fill="rgb(25, 26, 29)" fill-opacity="0.47" />
        <path d="M62,125L90,62L128,90Z" fill="rgb(36, 38, 49)" fill-opacity="0.10" />
        <path d="M60,12L127,13L30,49Z" fill="rgb(21, 23, 22)" fill-opacity="0.44" />
        <path d="M133,127L137,160L151,149Z" fill="rgb(26, 27, 29)" fill-opacity="0.54" />
        <path d="M70,138L52,82L82,98Z" fill="rgb(32, 31, 35)" fill-opacity="0.39" />
        <path d="M93,152L154,141L124,119Z" fill="rgb(29, 30, 32)" fill-opacity="0.38" />
        <path d="M25,81L4,68L3,135Z" fill="rgb(19, 21, 20)" fill-opacity="0.50" />
        <path d="M159,12L169,47L104,15Z" fill="rgb(20, 21, 21)" fill-opacity="0.42" />
        <path d="M144,73L169,23L129,26Z" fill="rgb(23, 25, 24)" fill-opacity="0.28" />
        <path d="M59,172L30,165L22,107Z" fill="rgb(21, 23, 22)" fill-opacity="0.52" />
        <path d="M47,88L78,142L37,124Z" fill="rgb(28, 28, 31)" fill-opacity="0.46" />
        <path d="M27,134L65,147L48,163Z" fill="rgb(23, 24, 25)" fill-opacity="0.50" />
        <path d="M150,57L132,68L147,78Z" fill="rgb(27, 28, 30)" fill-opacity="0.57" />
        <path d="M80,81L63,98L89,107Z" fill="rgb(35, 35, 38)" fill-opacity="0.47" />
        <path d="M89,118L116,81L76,88Z" fill="rgb(38, 38, 40)" fill-opacity="0.38" />
        <path d="M162,68L125,47L154,142Z" fill="rgb(28, 29, 30)" fill-opacity="0.32" />
        <path d="M175,-27L194,16L220,14Z" fill="rgb(9, 11, 10)" fill-opacity="0.70" />
        <path d="M95,83L158,84L124,58Z" fill="rgb(32, 33, 35)" fill-opacity="0.27" />
        <path d="M153,127L40,83L78,177Z" fill="rgb(33, 33, 36)" fill-opacity="0.12" />
        <path d="M66,137L58,74L90,142Z" fill="rgb(31, 32, 34)" fill-opacity="0.60" />
        <path d="M105,120L89,138L61,107Z" fill="rgb(33, 34, 36)" fill-opacity="0.56" />
        <path d="M122,58L138,153L33,116Z" fill="rgb(40, 39, 39)" fill-opacity="0.10" />
        <path d="M123,46L60,61L84,31Z" fill="rgb(26, 27, 29)" fill-opacity="0.60" />
        <path d="M2,160L27,157L3,111Z" fill="rgb(17, 19, 18)" fill-opacity="0.57" />
        <path d="M70,46L113,49L52,78Z" fill="rgb(28, 29, 31)" fill-opacity="0.50" />
        <path d="M17,164L6,114L25,135Z" fill="rgb(19, 21, 20)" fill-opacity="0.57" />
        <path d="M74,55L105,47L82,73Z" fill="rgb(29, 31, 32)" fill-opacity="0.46" />
        <path d="M18,46L0,125L43,184Z" fill="rgb(20, 22, 21)" fill-opacity="0.34" />
        <path d="M116,204L58,164L43,189Z" fill="rgb(19, 21, 20)" fill-opacity="0.44" />
        <path d="M111,76L133,67L98,46Z" fill="rgb(30, 31, 33)" fill-opacity="0.51" />
        <path d="M158,64L166,52L182,78Z" fill="rgb(21, 23, 21)" fill-opacity="0.56" />
        <path d="M89,38L150,76L26,107Z" fill="rgb(33, 35, 38)" fill-opacity="0.11" />
        <path d="M43,15L8,84L17,17Z" fill="rgb(17, 19, 18)" fill-opacity="0.45" />
        <path d="M10,63L42,54L36,23Z" fill="rgb(19, 21, 20)" fill-opacity="0.56" />
        <path d="M8,124L45,59L36,24Z" fill="rgb(21, 23, 22)" fill-opacity="0.49" />
        <path d="M122,78L97,75L88,121Z" fill="rgb(44, 43, 43)" fill-opacity="0.13" />
        <path d="M28,100L58,180L16,124Z" fill="rgb(22, 24, 23)" fill-opacity="0.51" />
        <path d="M49,157L1,90L83,3Z" fill="rgb(28, 29, 30)" fill-opacity="0.10" />
        <path d="M45,145L38,76L76,45Z" fill="rgb(30, 29, 29)" fill-opacity="0.31" />
        <path d="M81,132L42,96L72,44Z" fill="rgb(31, 33, 35)" fill-opacity="0.26" />
        <path d="M143,121L147,84L124,93Z" fill="rgb(31, 32, 34)" fill-opacity="0.47" />
        <path d="M63,29L110,12L179,36Z" fill="rgb(21, 23, 22)" fill-opacity="0.45" />
        <path d="M145,89L146,90L145,90Z" fill="rgb(5, 6, 8)" fill-opacity="0.51" />
        <path d="M133,138L122,148L110,161Z" fill="rgb(24, 25, 27)" fill-opacity="0.49" />
        <path d="M79,114L108,78L73,86Z" fill="rgb(36, 37, 39)" fill-opacity="0.52" />
        <path d="M127,73L121,78L115,85Z" fill="rgb(37, 39, 41)" fill-opacity="0.50" />
        <path d="M132,121L137,71L112,99Z" fill="rgb(32, 34, 36)" fill-opacity="0.43" />
        <path d="M60,96L81,62L125,73Z" fill="rgb(33, 35, 36)" fill-opacity="0.37" />
        <path d="M94,118L140,109L128,79Z" fill="rgb(36, 36, 37)" fill-opacity="0.34" />
        <path d="M78,87L105,123L108,75Z" fill="rgb(37, 38, 39)" fill-opacity="0.55" />
        <path d="M80,101L107,77L108,112Z" fill="rgb(39, 39, 40)" fill-opacity="0.46" />
        <path d="M61,43L64,25L89,26Z" fill="rgb(22, 23, 24)" fill-opacity="0.52" />
        <path d="M84,21L105,34L48,53Z" fill="rgb(24, 25, 26)" fill-opacity="0.46" />
        <path d="M51,157L55,185L98,179Z" fill="rgb(21, 23, 22)" fill-opacity="0.47" />
        <path d="M101,176L80,160L52,175Z" fill="rgb(23, 25, 23)" fill-opacity="0.45" />
        <path d="M115,97L89,124L99,77Z" fill="rgb(38, 39, 39)" fill-opacity="0.46" />
        <path d="M114,94L95,112L94,81Z" fill="rgb(39, 39, 40)" fill-opacity="0.54" />
        <path d="M78,120L78,119L87,111Z" fill="rgb(38, 39, 42)" fill-opacity="0.50" />
        <path d="M11,156L19,181L38,165Z" fill="rgb(16, 17, 19)" fill-opacity="0.52" />
        <path d="M100,115L108,106L73,83Z" fill="rgb(37, 38, 39)" fill-opacity="0.47" />
        <path d="M175,95L176,114L162,106Z" fill="rgb(23, 23, 27)" fill-opacity="0.47" />
        <path d="M66,33L29,80L127,40Z" fill="rgb(26, 27, 29)" fill-opacity="0.36" />
        <path d="M197,81L193,65L240,53Z" fill="rgb(15, 16, 20)" fill-opacity="0.55" />
        <path d="M88,78L96,115L116,106Z" fill="rgb(38, 39, 39)" fill-opacity="0.45" />
        <path d="M105,30L83,74L43,65Z" fill="rgb(29, 31, 31)" fill-opacity="0.27" />
        <path d="M86,49L99,69L59,75Z" fill="rgb(31, 32, 33)" fill-opacity="0.44" />
        <path d="M143,71L167,113L169,84Z" fill="rgb(25, 26, 30)" fill-opacity="0.54" />
        <path d="M149,40L130,55L128,40Z" fill="rgb(25, 27, 26)" fill-opacity="0.50" />
        <path d="M87,88L107,86L93,111Z" fill="rgb(38, 39, 42)" fill-opacity="0.40" />
        <path d="M58,70L110,72L107,55Z" fill="rgb(31, 32, 34)" fill-opacity="0.67" />
        <path d="M103,52L77,70L94,89Z" fill="rgb(33, 34, 36)" fill-opacity="0.41" />
        <path d="M53,169L138,173L22,89Z" fill="rgb(28, 29, 30)" fill-opacity="0.13" />
        <path d="M123,132L82,166L37,116Z" fill="rgb(30, 32, 34)" fill-opacity="0.22" />
        <path d="M164,110L133,64L163,79Z" fill="rgb(27, 28, 30)" fill-opacity="0.52" />
        <path d="M95,147L126,128L58,124Z" fill="rgb(32, 32, 34)" fill-opacity="0.46" />
        <path d="M133,104L64,135L115,139Z" fill="rgb(33, 34, 36)" fill-opacity="0.42" />
        <path d="M92,53L137,103L81,131Z" fill="rgb(36, 38, 40)" fill-opacity="0.19" />
        <path d="M128,88L102,163L79,53Z" fill="rgb(41, 39, 42)" fill-opacity="0.10" />
        <path d="M112,112L110,75L78,112Z" fill="rgb(39, 38, 39)" fill-opacity="0.39" />
        <path d="M74,104L105,76L118,110Z" fill="rgb(37, 38, 39)" fill-opacity="0.49" />
        <path d="M79,154L180,51L162,179Z" fill="rgb(29, 30, 31)" fill-opacity="0.10" />
        <path d="M60,120L81,132L96,123Z" fill="rgb(32, 32, 35)" fill-opacity="0.60" />
        <path d="M104,143L73,154L116,166Z" fill="rgb(27, 28, 30)" fill-opacity="0.65" />
        <path d="M128,93L149,72L152,111Z" fill="rgb(29, 31, 33)" fill-opacity="0.46" />
        <path d="M119,158L146,151L152,114Z" fill="rgb(26, 27, 29)" fill-opacity="0.59" />
        <path d="M126,196L177,181L137,158Z" fill="rgb(18, 20, 18)" fill-opacity="0.39" />
        <path d="M117,80L142,97L102,137Z" fill="rgb(33, 35, 38)" fill-opacity="0.38" />
        <path d="M51,167L16,86L144,150Z" fill="rgb(30, 30, 34)" fill-opacity="0.10" />
        <path d="M77,151L117,162L99,140Z" fill="rgb(28, 29, 31)" fill-opacity="0.62" />
        <path d="M157,174L72,177L139,158Z" fill="rgb(22, 24, 24)" fill-opacity="0.36" />
        <path d="M112,43L113,56L94,44Z" fill="rgb(27, 28, 30)" fill-opacity="0.52" />
        <path d="M92,98L119,78L111,124Z" fill="rgb(37, 38, 38)" fill-opacity="0.51" />
        <path d="M118,178L57,156L140,158Z" fill="rgb(25, 26, 27)" fill-opacity="0.38" />
        <path d="M85,87L114,90L95,106Z" fill="rgb(38, 39, 40)" fill-opacity="0.54" />
        <path d="M125,110L98,84L88,116Z" fill="rgb(38, 38, 39)" fill-opacity="0.50" />
        <path d="M119,157L150,106L149,151Z" fill="rgb(27, 29, 30)" fill-opacity="0.40" />
        <path d="M97,158L150,116L136,147Z" fill="rgb(28, 29, 31)" fill-opacity="0.55" />
        <path d="M77,84L98,132L50,90Z" fill="rgb(33, 34, 36)" fill-opacity="0.34" />
        <path d="M78,193L81,216L64,190Z" fill="rgb(17, 17, 21)" fill-opacity="0.47" />
        <path d="M130,144L95,140L146,121Z" fill="rgb(30, 31, 33)" fill-opacity="0.46" />
        <path d="M113,150L146,117L128,104Z" fill="rgb(31, 32, 34)" fill-opacity="0.50" />
        <path d="M93,78L101,87L68,106Z" fill="rgb(35, 37, 39)" fill-opacity="0.40" />
        <path d="M135,104L116,138L61,119Z" fill="rgb(33, 34, 37)" fill-opacity="0.42" />
        <path d="M102,101L96,96L95,107Z" fill="rgb(41, 41, 41)" fill-opacity="0.56" />
        <path d="M79,119L114,128L96,98Z" fill="rgb(35, 36, 38)" fill-opacity="0.49" />
        <path d="M81,95L105,121L110,78Z" fill="rgb(38, 38, 40)" fill-opacity="0.52" />
        <path d="M89,77L117,96L90,119Z" fill="rgb(38, 39, 41)" fill-opacity="0.35" />
        <path d="M89,99L110,116L106,82Z" fill="rgb(39, 40, 39)" fill-opacity="0.45" />
        <path d="M142,118L138,76L124,86Z" fill="rgb(31, 32, 34)" fill-opacity="0.55" />
        <path d="M116,35L142,9L163,64Z" fill="rgb(22, 23, 25)" fill-opacity="0.26" />
        <path d="M78,67L89,88L105,73Z" fill="rgb(32, 34, 37)" fill-opacity="0.46" />
        <path d="M112,87L106,112L74,93Z" fill="rgb(38, 38, 39)" fill-opacity="0.63" />
        <path d="M84,116L85,83L121,90Z" fill="rgb(37, 38, 40)" fill-opacity="0.46" />
        <path d="M124,89L88,111L75,83Z" fill="rgb(37, 38, 40)" fill-opacity="0.51" />
        <path d="M100,13L169,60L31,74Z" fill="rgb(30, 29, 33)" fill-opacity="0.10" />
        <path d="M86,102L103,74L110,110Z" fill="rgb(39, 39, 40)" fill-opacity="0.46" />
        <path d="M91,108L113,94L101,82Z" fill="rgb(40, 39, 41)" fill-opacity="0.50" />
        <path d="M155,60L47,72L130,152Z" fill="rgb(36, 36, 38)" fill-opacity="0.10" />
        <path d="M77,91L122,83L100,123Z" fill="rgb(37, 38, 39)" fill-opacity="0.60" />
        <path d="M76,105L103,78L121,121Z" fill="rgb(38, 39, 39)" fill-opacity="0.42" />
        <path d="M87,81L72,122L108,70Z" fill="rgb(35, 36, 38)" fill-opacity="0.57" />
        <path d="M101,78L75,89L98,120Z" fill="rgb(37, 38, 40)" fill-opacity="0.42" />
        <path d="M121,54L133,119L159,92Z" fill="rgb(31, 32, 32)" fill-opacity="0.32" />
        <path d="M104,93L113,85L103,95Z" fill="rgb(43, 43, 45)" fill-opacity="0.50" />
        <path d="M72,1L48,39L19,33Z" fill="rgb(18, 20, 19)" fill-opacity="0.65" />
        <path d="M95,166L131,160L96,152Z" fill="rgb(26, 27, 29)" fill-opacity="0.63" />
        <path d="M107,112L84,92L108,81Z" fill="rgb(38, 39, 40)" fill-opacity="0.54" />
        <path d="M99,95L80,89L99,107Z" fill="rgb(38, 39, 41)" fill-opacity="0.52" />
        <path d="M2,99L82,16L12,43Z" fill="rgb(21, 22, 21)" fill-opacity="0.28" />
        <path d="M-5,97L46,16L110,8Z" fill="rgb(26, 24, 27)" fill-opacity="0.12" />
        <path d="M106,87L113,94L106,88Z" fill="rgb(41, 41, 42)" fill-opacity="0.50" />
        <path d="M35,65L65,37L38,41Z" fill="rgb(22, 24, 23)" fill-opacity="0.62" />
        <path d="M99,165L77,139L114,148Z" fill="rgb(28, 29, 31)" fill-opacity="0.59" />
        <path d="M96,38L46,83L43,48Z" fill="rgb(26, 28, 30)" fill-opacity="0.30" />
        <path d="M126,83L95,125L140,107Z" fill="rgb(34, 35, 37)" fill-opacity="0.42" />
        <path d="M39,64L70,46L55,37Z" fill="rgb(24, 25, 26)" fill-opacity="0.46" />
        <path d="M49,68L77,49L73,70Z" fill="rgb(28, 28, 31)" fill-opacity="0" />
        <path d="M83,88L118,105L80,111Z" fill="rgb(37, 38, 39)" fill-opacity="0.53" />
        <path d="M42,82L68,37L79,52Z" fill="rgb(27, 28, 30)" fill-opacity="0.41" />
        <path d="M107,49L57,79L60,57Z" fill="rgb(29, 30, 32)" fill-opacity="0.43" />
        <path d="M121,127L93,128L67,79Z" fill="rgb(35, 36, 38)" fill-opacity="0.45" />
        <path d="M101,120L123,89L83,99Z" fill="rgb(38, 38, 39)" fill-opacity="0.47" />
        <path d="M73,63L53,74L131,69Z" fill="rgb(31, 32, 34)" fill-opacity="0.51" />
        <path d="M100,81L73,99L127,115Z" fill="rgb(39, 40, 41)" fill-opacity="0.28" />
        <path d="M137,132L98,147L124,122Z" fill="rgb(31, 31, 32)" fill-opacity="0.47" />
        <path d="M93,88L107,97L90,112Z" fill="rgb(38, 39, 41)" fill-opacity="0.52" />
        <path d="M45,108L59,91L71,136Z" fill="rgb(29, 30, 32)" fill-opacity="0.63" />
        <path d="M28,90L25,157L11,117Z" fill="rgb(20, 22, 21)" fill-opacity="0.65" />
        <path d="M103,112L87,100L113,88Z" fill="rgb(39, 39, 39)" fill-opacity="0.52" />
        <path d="M54,96L38,90L52,44Z" fill="rgb(26, 28, 30)" fill-opacity="0.40" />
        <path d="M28,68L33,121L18,104Z" fill="rgb(22, 24, 23)" fill-opacity="0.60" />
        <path d="M108,58L129,79L64,69Z" fill="rgb(32, 33, 35)" fill-opacity="0.47" />
        <path d="M81,90L115,92L95,113Z" fill="rgb(38, 39, 40)" fill-opacity="0.54" />
        <path d="M102,137L108,115L121,135Z" fill="rgb(33, 34, 36)" fill-opacity="0.51" />
        <path d="M182,89L134,30L165,32Z" fill="rgb(21, 22, 22)" fill-opacity="0.40" />
        <path d="M96,116L108,134L131,101Z" fill="rgb(34, 35, 37)" fill-opacity="0.63" />
        <path d="M80,44L37,75L38,109Z" fill="rgb(27, 28, 30)" fill-opacity="0.48" />
        <path d="M74,79L67,70L74,80Z" fill="rgb(38, 39, 40)" fill-opacity="0.51" />
        <path d="M41,92L63,56L69,107Z" fill="rgb(29, 31, 32)" fill-opacity="0.43" />
        <path d="M52,107L64,73L104,159Z" fill="rgb(32, 33, 35)" fill-opacity="0.32" />
        <path d="M65,118L77,88L61,80Z" fill="rgb(32, 33, 35)" fill-opacity="0.56" />
        <path d="M95,79L81,121L72,94Z" fill="rgb(35, 36, 38)" fill-opacity="0.60" />
        <path d="M136,80L112,66L133,105Z" fill="rgb(32, 33, 35)" fill-opacity="0.55" />
        <path d="M68,84L125,107L102,130Z" fill="rgb(37, 38, 39)" fill-opacity="0.28" />
    </svg>