<svg xmlns="http://www.w3.org/2000/svg" viewBox="0 0 196.76279069767443 256" style="display:none" id="curr"
        clip-path="url(#clip)" width="393.52558139534887" height="512">
        <defs>
            <clipPath id="clip" clipPathUnits="objectBoundingBox">
                <rect x="0" y="0" width="196.76279069767443" height="256" />
            </clipPath>
        </defs>
        <rect x="0" y="0" width="196.76279069767443" height="256" fill="#000000" />
        <path d="M41,59L100,218L153,30Z" fill="rgb(202, 125, 13)" fill-opacity="0.83" />
        <path d="M135,230L-10,206L180,197Z" fill="rgb(171, 114, 36)" fill-opacity="0.52" />
        <path d="M32,189L265,164L107,204Z" fill="rgb(28, 26, 23)" fill-opacity="0.96" />
        <path d="M107,145L144,94L118,45Z" fill="rgb(255, 161, 2)" fill-opacity="0.68" />
        <path d="M191,-156L88,8L202,153Z" fill="rgb(27, 26, 24)" fill-opacity="1.00" />
        <path d="M78,179L97,180L86,147Z" fill="rgb(255, 175, 4)" fill-opacity="0.55" />
        <path d="M86,13L2,181L-102,-274Z" fill="rgb(28, 28, 26)" fill-opacity="0.96" />
        <path d="M86,102L47,108L81,35Z" fill="rgb(255, 169, 3)" fill-opacity="0.50" />
        <path d="M98,155L101,187L117,152Z" fill="rgb(255, 173, 0)" fill-opacity="0.53" />
        <path d="M141,63L55,66L91,40Z" fill="rgb(255, 158, 2)" fill-opacity="0.70" />
        <path d="M103,140L119,153L73,153Z" fill="rgb(0, 9, 31)" fill-opacity="0.52" />
        <path d="M119,83L98,63L117,73Z" fill="rgb(13, 15, 27)" fill-opacity="0.63" />
        <path d="M-79,89L44,436L334,114Z" fill="rgb(156, 135, 108)" fill-opacity="0.14" style="display: none;" />
        <path d="M51,88L92,166L68,50Z" fill="rgb(255, 151, 0)" fill-opacity="0.80" />
        <path d="M64,115L81,201L75,137Z" fill="rgb(20, 20, 21)" fill-opacity="0.77" />
        <path d="M135,218L137,211L122,206Z" fill="rgb(245, 145, 1)" fill-opacity="0.54" />
        <path d="M122,239L152,218L117,213Z" fill="rgb(8, 10, 16)" fill-opacity="0.65" />
        <path d="M111,198L119,208L106,215Z" fill="rgb(240, 140, 3)" fill-opacity="0.50" />
        <path d="M112,99L105,122L113,117Z" fill="rgb(0, 0, 19)" fill-opacity="0.48" />
        <path d="M98,143L85,129L100,197Z" fill="rgb(42, 26, 11)" fill-opacity="0.50" />
        <path d="M83,88L86,81L94,103Z" fill="rgb(0, 6, 36)" fill-opacity="0.52" />
        <path d="M-192,-28L30,243L49,107Z" fill="rgb(28, 28, 26)" fill-opacity="0.92" />
        <path d="M87,105L77,95L86,135Z" fill="rgb(18, 13, 20)" fill-opacity="0.51" />
        <path d="M95,65L77,72L73,83Z" fill="rgb(0, 0, 30)" fill-opacity="0.59" />
        <path d="M98,82L90,87L101,93Z" fill="rgb(4, 14, 32)" fill-opacity="0.53" />
        <path d="M137,69L131,116L108,44Z" fill="rgb(255, 155, 0)" fill-opacity="0.65" />
        <path d="M114,154L263,320L125,118Z" fill="rgb(26, 25, 23)" fill-opacity="0.98" />
        <path d="M105,76L108,86L92,75Z" fill="rgb(0, 8, 32)" fill-opacity="0.57" />
        <path d="M34,198L101,214L33,217Z" fill="rgb(247, 138, 0)" fill-opacity="0.30" />
        <path d="M115,100L71,109L113,107Z" fill="rgb(30, 23, 23)" fill-opacity="0.55" />
        <path d="M56,17L169,-63L144,63Z" fill="rgb(23, 23, 21)" fill-opacity="1.00" />
        <path d="M98,101L99,131L92,128Z" fill="rgb(10, 14, 24)" fill-opacity="0.60" />
        <path d="M137,172L345,294L140,42Z" fill="rgb(29, 29, 27)" fill-opacity="0.88" />
        <path d="M114,11L98,44L63,41Z" fill="rgb(26, 26, 26)" fill-opacity="0.67" />
        <path d="M119,144L111,130L100,151Z" fill="rgb(255, 159, 0)" fill-opacity="0.54" />
        <path d="M96,104L108,104L125,75Z" fill="rgb(255, 160, 4)" fill-opacity="0.54" />
        <path d="M157,201L146,206L146,196Z" fill="rgb(235, 141, 8)" fill-opacity="0.51" />
        <path d="M109,109L96,108L101,127Z" fill="rgb(254, 152, 2)" fill-opacity="0.60" />
        <path d="M51,217L120,216L109,237Z" fill="rgb(24, 20, 19)" fill-opacity="0.69" />
        <path d="M50,147L99,149L59,157Z" fill="rgb(17, 20, 24)" fill-opacity="0.66" />
        <path d="M95,156L82,183L78,156Z" fill="rgb(255, 151, 0)" fill-opacity="0.68" />
        <path d="M126,203L135,192L126,214Z" fill="rgb(231, 137, 3)" fill-opacity="0.50" />
        <path d="M148,194L142,212L116,181Z" fill="rgb(5, 9, 14)" fill-opacity="0.66" />
        <path d="M111,90L106,136L97,163Z" fill="rgb(0, 0, 19)" fill-opacity="0.44" />
        <path d="M108,87L106,77L101,112Z" fill="rgb(24, 25, 31)" fill-opacity="0.47" />
        <path d="M103,153L115,176L98,185Z" fill="rgb(255, 158, 0)" fill-opacity="0.59" />
        <path d="M50,216L97,206L80,200Z" fill="rgb(192, 113, 5)" fill-opacity="0.49" />
        <path d="M113,74L85,66L99,65Z" fill="rgb(9, 17, 32)" fill-opacity="0.48" />
        <path d="M245,42L138,70L128,57Z" fill="rgb(28, 27, 25)" fill-opacity="1.00" />
        <path d="M38,215L45,85L70,126Z" fill="rgb(27, 27, 24)" fill-opacity="0.91" />
        <path d="M40,77L20,-22L99,29Z" fill="rgb(24, 23, 22)" fill-opacity="1.00" />
        <path d="M99,101L91,96L109,91Z" fill="rgb(5, 13, 34)" fill-opacity="0.55" />
        <path d="M127,205L125,178L47,193Z" fill="rgb(22, 21, 19)" fill-opacity="0.81" />
        <path d="M95,104L141,95L138,73Z" fill="rgb(255, 151, 4)" fill-opacity="0.69" />
        <path d="M53,123L54,13L-21,302Z" fill="rgb(27, 27, 25)" fill-opacity="0.90" />
        <path d="M86,131L87,122L94,144Z" fill="rgb(0, 0, 26)" fill-opacity="0.50" />
        <path d="M147,196L148,216L144,210Z" fill="rgb(255, 163, 10)" fill-opacity="0.63" />
        <path d="M93,180L97,151L99,187Z" fill="rgb(0, 3, 18)" fill-opacity="0.54" />
        <path d="M158,206L156,216L152,194Z" fill="rgb(255, 157, 9)" fill-opacity="0.55" />
        <path d="M81,75L74,93L96,69Z" fill="rgb(255, 157, 6)" fill-opacity="0.66" />
        <path d="M46,195L46,219L55,233Z" fill="rgb(33, 26, 20)" fill-opacity="0.60" />
        <path d="M112,159L126,146L115,172Z" fill="rgb(10, 13, 19)" fill-opacity="0.44" />
        <path d="M75,153L94,153L94,189Z" fill="rgb(255, 162, 0)" fill-opacity="0.44" />
        <path d="M118,141L128,85L102,147Z" fill="rgb(255, 155, 0)" fill-opacity="0.62" />
        <path d="M99,216L94,195L94,217Z" fill="rgb(11, 9, 13)" fill-opacity="0.57" />
        <path d="M88,204L83,222L83,202Z" fill="rgb(255, 148, 0)" fill-opacity="0.46" />
        <path d="M156,216L145,216L154,211Z" fill="rgb(255, 151, 8)" fill-opacity="0.61" />
        <path d="M54,207L62,220L54,218Z" fill="rgb(0, 0, 17)" fill-opacity="0.59" />
        <path d="M91,208L94,208L92,220Z" fill="rgb(255, 159, 7)" fill-opacity="0.57" />
        <path d="M83,85L87,92L91,74Z" fill="rgb(3, 11, 31)" fill-opacity="0.53" />
        <path d="M77,105L113,102L98,109Z" fill="rgb(39, 31, 29)" fill-opacity="0.56" />
        <path d="M100,183L67,181L81,208Z" fill="rgb(21, 21, 24)" fill-opacity="0.49" />
        <path d="M125,86L111,95L106,75Z" fill="rgb(255, 160, 2)" fill-opacity="0.51" />
        <path d="M107,66L109,45L127,82Z" fill="rgb(255, 155, 2)" fill-opacity="0.67" />
        <path d="M42,208L46,202L52,205Z" fill="rgb(255, 180, 10)" fill-opacity="0.49" />
        <path d="M92,127L101,127L98,109Z" fill="rgb(0, 13, 32)" fill-opacity="0.40" />
        <path d="M54,96L57,64L95,103Z" fill="rgb(252, 150, 3)" fill-opacity="0.76" />
        <path d="M92,109L84,105L95,148Z" fill="rgb(255, 153, 7)" fill-opacity="0.64" />
        <path d="M129,198L129,214L125,211Z" fill="rgb(255, 168, 9)" fill-opacity="0.53" />
        <path d="M125,209L114,225L130,157Z" fill="rgb(18, 18, 19)" fill-opacity="0.66" />
        <path d="M109,126L108,114L97,152Z" fill="rgb(19, 20, 24)" fill-opacity="0.65" />
        <path d="M95,222L86,202L87,221Z" fill="rgb(13, 8, 13)" fill-opacity="0.57" />
        <path d="M110,88L105,77L105,96Z" fill="rgb(0, 1, 26)" fill-opacity="0.45" />
        <path d="M116,220L105,203L93,197Z" fill="rgb(226, 132, 1)" fill-opacity="0.41" />
        <path d="M93,99L99,97L80,89Z" fill="rgb(0, 0, 31)" fill-opacity="0.38" />
        <path d="M88,119L101,143L94,145Z" fill="rgb(255, 161, 7)" fill-opacity="0.60" />
        <path d="M119,215L109,217L106,210Z" fill="rgb(255, 169, 12)" fill-opacity="0.41" />
        <path d="M84,126L81,100L91,134Z" fill="rgb(0, 0, 22)" fill-opacity="0.45" />
        <path d="M79,24L30,99L58,67Z" fill="rgb(26, 25, 23)" fill-opacity="0.95" />
        <path d="M81,45L63,58L128,55Z" fill="rgb(255, 154, 3)" fill-opacity="0.52" />
        <path d="M117,83L101,61L121,80Z" fill="rgb(50, 36, 25)" fill-opacity="0.49" />
        <path d="M139,99L121,69L105,151Z" fill="rgb(255, 151, 1)" fill-opacity="0.68" />
        <path d="M149,201L149,215L155,204Z" fill="rgb(0, 0, 15)" fill-opacity="0.44" />
        <path d="M92,95L106,87L99,94Z" fill="rgb(255, 177, 13)" fill-opacity="0.57" />
        <path d="M64,237L71,199L62,220Z" fill="rgb(43, 34, 23)" fill-opacity="0.64" />
        <path d="M100,75L92,75L84,85Z" fill="rgb(0, 3, 30)" fill-opacity="0.59" />
        <path d="M35,214L36,198L40,214Z" fill="rgb(250, 154, 14)" fill-opacity="0.58" />
        <path d="M83,153L81,148L125,149Z" fill="rgb(12, 14, 22)" fill-opacity="0.62" />
        <path d="M83,119L59,111L53,92Z" fill="rgb(255, 152, 2)" fill-opacity="0.59" />
        <path d="M93,66L112,85L114,76Z" fill="rgb(250, 152, 11)" fill-opacity="0.59" />
        <path d="M115,152L113,166L98,168Z" fill="rgb(255, 154, 0)" fill-opacity="0.58" />
        <path d="M80,69L74,84L88,66Z" fill="rgb(21, 21, 24)" fill-opacity="0.49" />
        <path d="M50,199L52,213L53,208Z" fill="rgb(255, 169, 0)" fill-opacity="0.50" />
        <path d="M135,219L130,202L135,209Z" fill="rgb(255, 163, 6)" fill-opacity="0.50" />
        <path d="M100,211L110,198L104,213Z" fill="rgb(6, 4, 11)" fill-opacity="0.50" />
        <path d="M42,213L41,200L35,238Z" fill="rgb(14, 16, 23)" fill-opacity="0.55" />
        <path d="M73,105L75,142L85,150Z" fill="rgb(255, 164, 0)" fill-opacity="0.50" />
        <path d="M84,205L95,209L90,201Z" fill="rgb(255, 151, 9)" fill-opacity="0.43" />
        <path d="M138,100L113,48L135,65Z" fill="rgb(255, 154, 2)" fill-opacity="0.50" />
        <path d="M60,218L146,215L174,225Z" fill="rgb(26, 23, 20)" fill-opacity="0.62" />
        <path d="M116,181L99,165L99,150Z" fill="rgb(255, 156, 0)" fill-opacity="0.43" />
        <path d="M65,76L123,52L90,43Z" fill="rgb(255, 155, 1)" fill-opacity="0.55" />
        <path d="M145,200L144,206L153,199Z" fill="rgb(255, 153, 12)" fill-opacity="0.49" />
        <path d="M60,222L64,205L68,203Z" fill="rgb(255, 168, 7)" fill-opacity="0.42" />
        <path d="M61,226L63,219L67,227Z" fill="rgb(115, 77, 37)" fill-opacity="0.50" />
        <path d="M47,204L42,202L43,218Z" fill="rgb(255, 160, 21)" fill-opacity="0.63" />
        <path d="M156,218L230,296L163,184Z" fill="rgb(24, 24, 23)" fill-opacity="0.86" />
        <path d="M78,196L82,217L83,192Z" fill="rgb(9, 13, 21)" fill-opacity="0.53" />
        <path d="M90,183L79,177L95,158Z" fill="rgb(255, 148, 2)" fill-opacity="0.56" />
        <path d="M133,160L137,102L149,52Z" fill="rgb(30, 28, 23)" fill-opacity="0.93" />
        <path d="M84,104L87,132L79,102Z" fill="rgb(0, 5, 21)" fill-opacity="0.47" />
        <path d="M165,202L114,155L113,190Z" fill="rgb(23, 23, 21)" fill-opacity="0.66" />
        <path d="M97,153L117,151L87,141Z" fill="rgb(25, 25, 24)" fill-opacity="0.46" />
        <path d="M87,66L112,67L86,70Z" fill="rgb(0, 11, 27)" fill-opacity="0.51" />
        <path d="M63,211L60,208L63,170Z" fill="rgb(7, 12, 15)" fill-opacity="0.68" />
        <path d="M145,213L151,216L158,213Z" fill="rgb(255, 166, 12)" fill-opacity="0.55" />
        <path d="M71,132L84,122L88,143Z" fill="rgb(254, 151, 5)" fill-opacity="0.55" />
        <path d="M101,130L100,138L95,133Z" fill="rgb(255, 179, 0)" fill-opacity="0.49" />
        <path d="M81,149L74,139L77,82Z" fill="rgb(255, 152, 2)" fill-opacity="0.74" />
        <path d="M78,152L49,165L79,162Z" fill="rgb(27, 25, 24)" fill-opacity="0.62" />
        <path d="M52,206L58,218L54,188Z" fill="rgb(28, 23, 18)" fill-opacity="0.53" />
        <path d="M85,117L102,109L93,108Z" fill="rgb(255, 152, 7)" fill-opacity="0.53" />
        <path d="M148,218L150,227L129,225Z" fill="rgb(79, 55, 28)" fill-opacity="0.50" />
        <path d="M134,222L137,226L139,222Z" fill="rgb(205, 134, 53)" fill-opacity="0.53" />
        <path d="M106,117L101,135L101,112Z" fill="rgb(255, 159, 5)" fill-opacity="0.57" />
        <path d="M69,213L76,217L70,203Z" fill="rgb(255, 178, 10)" fill-opacity="0.46" />
        <path d="M74,209L82,212L78,204Z" fill="rgb(224, 136, 12)" fill-opacity="0.49" />
        <path d="M78,227L78,221L17,224Z" fill="rgb(114, 76, 38)" fill-opacity="0.32" />
        <path d="M109,211L117,210L116,204Z" fill="rgb(255, 166, 12)" fill-opacity="0.51" />
        <path d="M141,84L182,-1L131,55Z" fill="rgb(26, 25, 23)" fill-opacity="0.83" />
        <path d="M3,-51L127,32L76,48Z" fill="rgb(24, 23, 21)" fill-opacity="0.90" />
        <path d="M46,203L46,217L42,215Z" fill="rgb(255, 171, 18)" fill-opacity="0.54" />
        <path d="M71,13L112,47L81,34Z" fill="rgb(28, 26, 23)" fill-opacity="0.73" />
        <path d="M89,72L114,78L102,69Z" fill="rgb(254, 152, 8)" fill-opacity="0.65" />
        <path d="M119,78L115,75L115,82Z" fill="rgb(0, 0, 20)" fill-opacity="0.52" />
        <path d="M91,203L94,184L79,178Z" fill="rgb(29, 26, 24)" fill-opacity="0.62" />
        <path d="M90,202L48,123L52,203Z" fill="rgb(22, 22, 22)" fill-opacity="0.75" />
        <path d="M143,204L137,217L133,188Z" fill="rgb(16, 16, 17)" fill-opacity="0.60" />
        <path d="M77,101L88,108L92,104Z" fill="rgb(9, 14, 26)" fill-opacity="0.52" />
        <path d="M76,148L80,117L89,145Z" fill="rgb(255, 155, 2)" fill-opacity="0.64" />
        <path d="M65,212L57,212L65,217Z" fill="rgb(255, 156, 13)" fill-opacity="0.57" />
        <path d="M110,203L113,203L105,211Z" fill="rgb(255, 182, 4)" fill-opacity="0.47" />
        <path d="M99,152L109,179L115,154Z" fill="rgb(255, 154, 1)" fill-opacity="0.55" />
        <path d="M141,215L136,216L142,210Z" fill="rgb(252, 153, 10)" fill-opacity="0.44" />
        <path d="M97,134L95,133L94,106Z" fill="rgb(41, 34, 25)" fill-opacity="0.60" />
        <path d="M104,89L102,80L96,80Z" fill="rgb(255, 175, 10)" fill-opacity="0.47" />
        <path d="M58,216L87,222L101,216Z" fill="rgb(11, 10, 15)" fill-opacity="0.54" />
        <path d="M86,207L86,217L82,203Z" fill="rgb(255, 171, 3)" fill-opacity="0.52" />
        <path d="M101,214L96,204L101,195Z" fill="rgb(255, 161, 0)" fill-opacity="0.50" />
        <path d="M118,147L100,149L110,142Z" fill="rgb(254, 149, 2)" fill-opacity="0.52" />
        <path d="M102,134L98,145L93,132Z" fill="rgb(254, 150, 3)" fill-opacity="0.62" />
        <path d="M110,66L61,61L110,44Z" fill="rgb(255, 152, 2)" fill-opacity="0.63" />
        <path d="M72,212L73,211L94,215Z" fill="rgb(31, 19, 14)" fill-opacity="0.52" />
        <path d="M86,45L54,86L79,72Z" fill="rgb(255, 153, 1)" fill-opacity="0.61" />
        <path d="M143,203L117,177L173,179Z" fill="rgb(23, 23, 23)" fill-opacity="0.67" />
        <path d="M108,124L106,118L116,95Z" fill="rgb(14, 14, 20)" fill-opacity="0.49" />
        <path d="M91,152L108,152L100,145Z" fill="rgb(21, 24, 27)" fill-opacity="0.58" />
        <path d="M158,207L153,217L155,201Z" fill="rgb(255, 176, 4)" fill-opacity="0.46" />
        <path d="M137,212L134,205L131,217Z" fill="rgb(252, 152, 14)" fill-opacity="0.62" />
        <path d="M128,207L125,213L123,211Z" fill="rgb(255, 156, 20)" fill-opacity="0.50" />
        <path d="M139,205L135,183L131,205Z" fill="rgb(11, 12, 17)" fill-opacity="0.47" />
        <path d="M79,84L53,85L56,70Z" fill="rgb(251, 151, 4)" fill-opacity="0.61" />
        <path d="M141,205L145,221L148,220Z" fill="rgb(0, 0, 8)" fill-opacity="0.50" />
        <path d="M98,144L105,117L93,144Z" fill="rgb(255, 156, 6)" fill-opacity="0.71" />
        <path d="M66,223L75,218L66,212Z" fill="rgb(15, 18, 17)" fill-opacity="0.54" />
        <path d="M93,184L105,199L73,198Z" fill="rgb(25, 24, 23)" fill-opacity="0.79" />
        <path d="M60,203L56,211L60,215Z" fill="rgb(254, 153, 9)" fill-opacity="0.52" />
        <path d="M84,94L60,110L83,74Z" fill="rgb(255, 154, 3)" fill-opacity="0.67" />
        <path d="M98,145L98,173L93,159Z" fill="rgb(3, 13, 24)" fill-opacity="0.43" />
        <path d="M97,77L109,85L101,75Z" fill="rgb(0, 11, 25)" fill-opacity="0.51" />
        <path d="M87,71L97,64L100,68Z" fill="rgb(26, 25, 28)" fill-opacity="0.46" />
        <path d="M127,117L169,100L117,140Z" fill="rgb(29, 27, 24)" fill-opacity="0.83" />
        <path d="M89,203L93,221L94,203Z" fill="rgb(253, 152, 12)" fill-opacity="0.45" />
        <path d="M207,237L142,92L116,144Z" fill="rgb(26, 26, 24)" fill-opacity="0.71" />
        <path d="M82,45L127,82L106,44Z" fill="rgb(255, 154, 4)" fill-opacity="0.45" />
        <path d="M42,204L27,204L62,197Z" fill="rgb(23, 23, 26)" fill-opacity="0.48" />
        <path d="M54,207L51,219L50,203Z" fill="rgb(255, 149, 6)" fill-opacity="0.53" />
        <path d="M88,89L91,78L93,95Z" fill="rgb(255, 170, 19)" fill-opacity="0.43" />
        <path d="M148,213L148,199L145,212Z" fill="rgb(255, 173, 12)" fill-opacity="0.55" />
        <path d="M82,69L92,66L73,80Z" fill="rgb(3, 12, 24)" fill-opacity="0.53" />
        <path d="M112,225L113,227L113,212Z" fill="rgb(255, 181, 54)" fill-opacity="0.46" />
        <path d="M93,143L91,153L81,99Z" fill="rgb(29, 27, 25)" fill-opacity="0.63" />
        <path d="M80,154L95,185L80,177Z" fill="rgb(255, 152, 4)" fill-opacity="0.52" />
        <path d="M37,217L35,211L38,195Z" fill="rgb(255, 171, 15)" fill-opacity="0.43" />
        <path d="M89,102L116,94L96,104Z" fill="rgb(250, 150, 5)" fill-opacity="0.65" />
        <path d="M97,132L95,111L92,128Z" fill="rgb(21, 23, 28)" fill-opacity="0.52" />
        <path d="M77,228L78,223L75,220Z" fill="rgb(142, 94, 47)" fill-opacity="0.47" />
        <path d="M131,211L135,219L133,205Z" fill="rgb(253, 152, 11)" fill-opacity="0.50" />
        <path d="M90,148L85,132L81,148Z" fill="rgb(255, 155, 10)" fill-opacity="0.55" />
        <path d="M142,212L142,216L139,216Z" fill="rgb(255, 174, 20)" fill-opacity="0.67" />
        <path d="M34,196L-116,311L36,234Z" fill="rgb(23, 23, 22)" fill-opacity="0.83" />
        <path d="M42,216L33,236L42,201Z" fill="rgb(34, 28, 24)" fill-opacity="0.54" />
        <path d="M106,180L138,173L122,215Z" fill="rgb(24, 22, 21)" fill-opacity="0.62" />
        <path d="M132,93L113,80L103,103Z" fill="rgb(254, 152, 4)" fill-opacity="0.63" />
        <path d="M34,222L39,221L38,228Z" fill="rgb(129, 85, 42)" fill-opacity="0.43" />
        <path d="M98,95L101,90L103,93Z" fill="rgb(255, 151, 15)" fill-opacity="0.50" />
        <path d="M70,52L53,76L79,48Z" fill="rgb(244, 148, 11)" fill-opacity="0.55" />
        <path d="M72,200L66,212L68,203Z" fill="rgb(2, 2, 11)" fill-opacity="0.48" />
        <path d="M77,213L72,216L80,216Z" fill="rgb(255, 183, 22)" fill-opacity="0.61" />
        <path d="M76,206L65,203L79,204Z" fill="rgb(255, 171, 21)" fill-opacity="0.46" />
        <path d="M95,227L86,222L108,222Z" fill="rgb(99, 68, 30)" fill-opacity="0.44" />
        <path d="M74,138L80,168L57,105Z" fill="rgb(23, 21, 21)" fill-opacity="0.59" />
        <path d="M106,223L100,242L106,204Z" fill="rgb(21, 20, 19)" fill-opacity="0.55" />
        <path d="M150,198L158,204L155,208Z" fill="rgb(242, 143, 13)" fill-opacity="0.54" />
        <path d="M57,203L60,204L56,208Z" fill="rgb(255, 164, 24)" fill-opacity="0.54" />
        <path d="M100,91L91,90L100,82Z" fill="rgb(4, 14, 28)" fill-opacity="0.49" />
        <path d="M55,199L62,239L53,203Z" fill="rgb(21, 18, 17)" fill-opacity="0.60" />
        <path d="M102,218L106,212L97,214Z" fill="rgb(241, 140, 11)" fill-opacity="0.40" />
        <path d="M96,195L91,204L98,202Z" fill="rgb(14, 16, 19)" fill-opacity="0.47" />
        <path d="M63,206L61,217L62,198Z" fill="rgb(32, 26, 11)" fill-opacity="0.55" />
        <path d="M79,178L80,167L91,176Z" fill="rgb(251, 150, 6)" fill-opacity="0.54" />
        <path d="M134,109L136,96L124,121Z" fill="rgb(248, 150, 11)" fill-opacity="0.50" />
        <path d="M140,85L128,61L106,132Z" fill="rgb(254, 152, 2)" fill-opacity="0.55" />
        <path d="M120,211L145,221L110,211Z" fill="rgb(23, 18, 16)" fill-opacity="0.71" />
        <path d="M88,87L92,81L101,79Z" fill="rgb(255, 159, 12)" fill-opacity="0.56" />
        <path d="M93,94L90,99L85,93Z" fill="rgb(24, 27, 33)" fill-opacity="0.43" />
        <path d="M36,196L35,199L40,203Z" fill="rgb(255, 165, 31)" fill-opacity="0.44" />
        <path d="M77,150L75,93L72,127Z" fill="rgb(251, 150, 4)" fill-opacity="0.54" />
        <path d="M109,90L108,81L100,100Z" fill="rgb(20, 21, 23)" fill-opacity="0.56" />
        <path d="M117,48L117,54L109,46Z" fill="rgb(250, 153, 12)" fill-opacity="0.56" />
        <path d="M79,209L83,227L83,206Z" fill="rgb(17, 16, 19)" fill-opacity="0.47" />
        <path d="M112,109L111,100L105,123Z" fill="rgb(10, 16, 22)" fill-opacity="0.53" />
        <path d="M106,133L117,120L117,147Z" fill="rgb(255, 153, 3)" fill-opacity="0.56" />
        <path d="M85,72L76,89L94,68Z" fill="rgb(247, 147, 5)" fill-opacity="0.50" />
        <path d="M111,114L124,122L138,98Z" fill="rgb(255, 154, 2)" fill-opacity="0.55" />
        <path d="M106,80L91,78L96,74Z" fill="rgb(21, 22, 25)" fill-opacity="0.51" />
        <path d="M99,184L111,178L99,153Z" fill="rgb(255, 157, 2)" fill-opacity="0.53" />
        <path d="M53,203L53,221L50,203Z" fill="rgb(248, 149, 9)" fill-opacity="0.50" />
        <path d="M147,220L139,225L135,213Z" fill="rgb(13, 13, 13)" fill-opacity="0.58" />
        <path d="M105,99L102,104L82,101Z" fill="rgb(255, 153, 7)" fill-opacity="0.53" />
        <path d="M105,216L105,214L91,211Z" fill="rgb(255, 159, 18)" fill-opacity="0.46" />
        <path d="M106,216L105,205L101,207Z" fill="rgb(0, 0, 18)" fill-opacity="0.47" />
        <path d="M106,213L114,214L111,215Z" fill="rgb(255, 169, 8)" fill-opacity="0.53" />
        <path d="M85,212L91,206L91,214Z" fill="rgb(19, 11, 11)" fill-opacity="0.50" />
        <path d="M70,98L99,104L62,79Z" fill="rgb(251, 150, 3)" fill-opacity="0.64" />
        <path d="M50,229L48,222L50,222Z" fill="rgb(109, 81, 50)" fill-opacity="0.50" />
        <path d="M91,216L90,233L95,216Z" fill="rgb(15, 19, 19)" fill-opacity="0.50" />
        <path d="M106,136L97,153L102,134Z" fill="rgb(22, 21, 24)" fill-opacity="0.51" />
        <path d="M44,232L47,207L51,211Z" fill="rgb(4, 5, 12)" fill-opacity="0.54" />
        <path d="M96,152L103,148L107,127Z" fill="rgb(32, 28, 25)" fill-opacity="0.61" />
    </svg>